# File created by Blade
# Date/Time:  Thu Sep 25 17:43:48 2014
# Frame Rate: 120.000 fps
#------------------------------------------------------
:FULLY-SPECIFIED
:DEGREES
339
root -25.105447 31.990418 -5.999519 -350.749969 5.487386 6.114788
Spine -1.036549 12.054248 -3.324539
Head -0.943424 31.897202 5.106116
LeftShoulder -10.641518 22.132752 12.647208
LeftArm 33.422995 20.234550 -49.669410
LeftForeArm 3.928795 -0.000000 18.832385
LeftHand -21.519929 -0.000000 -8.949325
LeftHandThumb1 -26.253704 0.000000 33.147579
RightShoulder -15.457191 9.034859 -24.631843
RightArm -12.523743 -21.439058 81.319271
RightForeArm -22.195776 0.000000 22.623235
RightHand -4.480890 -0.000000 9.399176
RightHandThumb1 -24.326973 -0.000000 -32.862282
LeftUpLeg -14.435400 -3.346164 1.194373
LeftLeg 14.572602 -0.000000 -0.000000
LeftFoot -17.869290 11.844956 334.054542
LeftToeBase 5.743883 -0.000000 -0.000000
RightUpLeg -14.250660 -30.261001 -21.271920
RightLeg 20.148642 -0.000000 -0.000000
RightFoot -0.270080 -17.311844 0.121138
RightToeBase -0.869831 -0.000000 0.000000
340
root -24.918881 32.044176 -6.044275 -350.773075 5.595611 5.925772
Spine -1.095014 12.112382 -3.233316
Head -0.174390 31.291536 4.188065
LeftShoulder -10.926164 21.924822 13.113965
LeftArm 33.353917 19.037519 -49.307082
LeftForeArm 3.855060 0.000000 18.751315
LeftHand -21.539892 -0.000000 -8.737355
LeftHandThumb1 -26.253704 0.000000 33.147579
RightShoulder -15.504764 9.163497 -24.896067
RightArm -12.480457 -20.940889 80.200896
RightForeArm -21.902398 -0.000000 22.421383
RightHand -4.653121 -0.000000 9.414543
RightHandThumb1 -24.326973 -0.000000 -32.862282
LeftUpLeg -14.163901 -3.878652 1.078566
LeftLeg 13.894058 -0.000000 -0.000000
LeftFoot -17.819084 12.553083 334.277079
LeftToeBase 5.760811 -0.000000 -0.000000
RightUpLeg -14.890351 -29.081400 -20.955366
RightLeg 21.894932 -0.000000 -0.000000
RightFoot -1.263091 -18.546303 -0.699575
RightToeBase -0.408309 -0.000000 0.000000
341
root -24.745619 32.098351 -6.086322 -350.839976 5.762375 5.736952
Spine -1.094804 12.081237 -3.143446
Head 0.570132 30.807738 3.392353
LeftShoulder -11.171617 21.713140 13.632906
LeftArm 33.200131 17.802348 -49.014154
LeftForeArm 3.800026 -0.000000 18.708162
LeftHand -21.652715 -0.000000 -8.421072
LeftHandThumb1 -26.253704 0.000000 33.147579
RightShoulder -15.529655 9.284491 -25.148599
RightArm -12.294057 -20.102340 79.003272
RightForeArm -21.793241 -0.000000 22.074734
RightHand -4.576755 -0.000000 10.068801
RightHandThumb1 -24.326973 -0.000000 -32.862282
LeftUpLeg -13.841069 -4.524976 1.007547
LeftLeg 13.196020 -0.000000 -0.000000
LeftFoot -17.764505 13.361821 334.587448
LeftToeBase 6.028347 -0.000000 -0.000000
RightUpLeg -15.421016 -28.050509 -20.616188
RightLeg 23.572620 -0.000000 -0.000000
RightFoot -2.301592 -19.701080 -1.170155
RightToeBase -0.406625 -0.000000 0.000000
342
root -24.567055 32.150977 -6.116416 -351.034363 6.037589 5.631686
Spine -0.915083 11.881456 -3.058381
Head 1.199345 30.428295 2.543829
LeftShoulder -11.410376 21.502390 14.130523
LeftArm 32.959119 16.452634 -48.793220
LeftForeArm 3.672026 -0.000000 18.691557
LeftHand -21.653396 -0.000000 -8.183818
LeftHandThumb1 -26.253704 0.000000 33.147579
RightShoulder -15.577451 9.368011 -25.350551
RightArm -11.912813 -20.081626 77.696390
RightForeArm -21.244394 -0.000000 21.651823
RightHand -4.499313 -0.000000 10.341065
RightHandThumb1 -24.326973 -0.000000 -32.862282
LeftUpLeg -13.394698 -5.245770 0.839578
LeftLeg 12.519849 -0.000000 -0.000000
LeftFoot -17.633339 14.037906 334.646332
LeftToeBase 5.756860 -0.000000 -0.000000
RightUpLeg -15.674473 -26.928004 -20.447872
RightLeg 25.202343 -0.000000 -0.000000
RightFoot -3.444343 -20.871283 -1.103829
RightToeBase -0.619161 -0.000000 0.000000
343
root -24.396051 32.202747 -6.139465 -351.293814 6.328756 5.561169
Spine -0.644985 11.681223 -3.013861
Head 1.707620 30.059545 1.721734
LeftShoulder -11.545744 21.171503 14.660531
LeftArm 32.550064 15.029357 -48.572261
LeftForeArm 3.182495 -0.000000 18.676397
LeftHand -21.614580 -0.000000 -8.354892
LeftHandThumb1 -26.253704 0.000000 33.147579
RightShoulder -15.648572 9.491469 -25.584193
RightArm -11.610450 -19.970782 76.436312
RightForeArm -20.786182 -0.000000 21.303726
RightHand -4.439244 -0.000000 10.655385
RightHandThumb1 -24.326973 -0.000000 -32.862282
LeftUpLeg -12.784204 -6.193745 0.683375
LeftLeg 11.677435 -0.000000 -0.000000
LeftFoot -17.561960 14.900816 334.631871
LeftToeBase 5.751915 -0.000000 -0.000000
RightUpLeg -15.805186 -25.881341 -20.283030
RightLeg 26.698359 -0.000000 -0.000000
RightFoot -4.520341 -22.125481 -1.278120
RightToeBase -0.737897 -0.000000 0.000000
344
root -24.254435 32.252845 -6.161048 -351.558146 6.663631 5.305525
Spine -0.396533 11.417055 -2.800447
Head 2.163432 29.730335 0.947923
LeftShoulder -11.658830 20.879820 15.175245
LeftArm 32.119137 13.641867 -48.242786
LeftForeArm 3.100395 -0.000000 18.614362
LeftHand -21.570179 -0.000000 -8.350596
LeftHandThumb1 -26.253704 0.000000 33.147579
RightShoulder -15.536239 9.781984 -26.041135
RightArm -11.939227 -17.682799 75.581100
RightForeArm -22.185248 -0.000000 21.492780
RightHand -4.849065 0.000000 9.781655
RightHandThumb1 -24.326973 -0.000000 -32.862282
LeftUpLeg -12.257836 -6.835568 0.730068
LeftLeg 10.973584 -0.000000 -0.000000
LeftFoot -17.433916 15.393554 334.658115
LeftToeBase 5.773937 -0.000000 -0.000000
RightUpLeg -15.932980 -25.120500 -19.782539
RightLeg 28.102060 -0.000000 -0.000000
RightFoot -5.577098 -23.219440 -1.445470
RightToeBase -0.851671 -0.000000 0.000000
345
root -24.127934 32.311108 -6.164008 -351.918553 7.013996 5.000437
Spine -0.083245 11.163235 -2.548529
Head 2.705544 29.794179 1.246876
LeftShoulder -11.767464 20.737565 15.566224
LeftArm 31.810949 12.231319 -47.634245
LeftForeArm 2.954844 -0.000000 18.589448
LeftHand -21.546765 -0.000000 -8.687598
LeftHandThumb1 -26.253704 0.000000 33.147579
RightShoulder -15.628305 9.871468 -26.138642
RightArm -11.476719 -17.966653 74.145714
RightForeArm -21.271069 -0.000000 21.072047
RightHand -4.788338 0.000000 10.482015
RightHandThumb1 -24.326973 -0.000000 -32.862282
LeftUpLeg -11.575706 -7.418352 0.830453
LeftLeg 10.194253 -0.000000 -0.000000
LeftFoot -17.217754 15.880875 334.752977
LeftToeBase 5.785628 -0.000000 -0.000000
RightUpLeg -15.890912 -24.508019 -19.171330
RightLeg 29.303231 -0.000000 -0.000000
RightFoot -6.539267 -24.380919 -1.595948
RightToeBase -0.692636 -0.000000 0.000000
346
root -24.009214 32.369551 -6.158569 -352.292090 7.364159 4.651475
Spine 0.199637 10.918426 -2.259584
Head 3.291854 30.030685 2.097819
LeftShoulder -11.799260 20.544579 15.928640
LeftArm 31.417802 10.692640 -47.049517
LeftForeArm 3.067952 0.000000 18.416857
LeftHand -21.436621 0.000000 -8.863121
LeftHandThumb1 -26.253704 0.000000 33.147579
RightShoulder -15.638766 9.950596 -26.343383
RightArm -11.314331 -17.192424 72.935563
RightForeArm -21.455316 -0.000000 20.943869
RightHand -4.974558 -0.000000 10.171737
RightHandThumb1 -24.326973 -0.000000 -32.862282
LeftUpLeg -10.878202 -7.845052 0.963832
LeftLeg 9.439938 -0.000000 -0.000000
LeftFoot -16.979852 16.174958 334.839018
LeftToeBase 5.801525 -0.000000 -0.000000
RightUpLeg -15.763971 -23.904656 -18.487494
RightLeg 30.390204 -0.000000 -0.000000
RightFoot -7.563057 -25.412432 -1.584735
RightToeBase -0.003131 -0.000000 0.000000
347
root -23.897589 32.422641 -6.162242 -352.575956 7.736028 4.300406
Spine 0.375268 10.635149 -2.010846
Head 3.844837 30.191840 2.960935
LeftShoulder -11.874089 20.414631 16.285181
LeftArm 31.172113 9.391636 -46.146817
LeftForeArm 2.935242 -0.000000 18.193186
LeftHand -21.590576 -0.000000 -9.110496
LeftHandThumb1 -26.253704 0.000000 33.147579
RightShoulder -15.580360 10.070425 -26.605446
RightArm -11.304269 -16.142138 71.811823
RightForeArm -21.744554 0.000000 20.920910
RightHand -5.265566 -0.000000 9.803050
RightHandThumb1 -24.326973 -0.000000 -32.862282
LeftUpLeg -10.324871 -8.236811 1.116021
LeftLeg 8.765722 -0.000000 -0.000000
LeftFoot -16.751357 16.412206 334.926744
LeftToeBase 5.528057 -0.000000 -0.000000
RightUpLeg -15.733296 -23.243908 -17.732932
RightLeg 31.494899 -0.000000 -0.000000
RightFoot -8.484753 -26.524357 -1.227806
RightToeBase -0.422724 -0.000000 0.000000
348
root -23.791870 32.469021 -6.165955 -352.851770 8.102045 3.975548
Spine 0.546110 10.371862 -1.831149
Head 4.307824 30.269702 3.811710
LeftShoulder -11.883764 20.304678 16.651896
LeftArm 30.928642 8.201057 -45.033254
LeftForeArm 2.917022 -0.000000 17.944108
LeftHand -21.527725 -0.000000 -9.479346
LeftHandThumb1 -26.253704 0.000000 33.147579
RightShoulder -15.543802 10.209213 -26.862115
RightArm -11.325590 -15.240351 70.671679
RightForeArm -22.039682 0.000000 20.916892
RightHand -5.436004 0.000000 9.497403
RightHandThumb1 -24.326973 -0.000000 -32.862282
LeftUpLeg -9.808482 -8.503646 1.236904
LeftLeg 8.151178 -0.000000 -0.000000
LeftFoot -16.488225 16.534247 335.016207
LeftToeBase 5.123051 -0.000000 -0.000000
RightUpLeg -15.760081 -22.642924 -16.930586
RightLeg 32.612425 -0.000000 -0.000000
RightFoot -9.505365 -27.239840 -1.285005
RightToeBase 0.533197 -0.000000 -0.000000
349
root -23.691509 32.511415 -6.181001 -353.005630 8.380609 3.662517
Spine 0.574357 10.200257 -1.713147
Head 4.736797 30.257629 4.636985
LeftShoulder -11.828263 20.169684 17.077813
LeftArm 30.550836 6.882151 -44.036243
LeftForeArm 3.322300 -0.000000 17.757612
LeftHand -21.525257 0.000000 -9.497898
LeftHandThumb1 -26.253704 0.000000 33.147579
RightShoulder -15.577698 10.289329 -27.124840
RightArm -11.265106 -14.492764 69.542519
RightForeArm -22.305289 -0.000000 20.912753
RightHand -5.565915 0.000000 9.125304
RightHandThumb1 -24.326973 -0.000000 -32.862282
LeftUpLeg -9.470360 -8.579806 1.352038
LeftLeg 7.629783 -0.000000 -0.000000
LeftFoot -16.184503 16.570476 335.362631
LeftToeBase 4.989851 -0.000000 -0.000000
RightUpLeg -15.969011 -22.044490 -16.057264
RightLeg 33.710738 -0.000000 -0.000000
RightFoot -10.412991 -27.910176 -1.044266
RightToeBase 0.754987 -0.000000 -0.000000
